<svg width="695" height="252" viewBox="0 0 695 252" fill="none" xmlns="http://www.w3.org/2000/svg">
<g filter="url(#filter0_d_2201_25)">
<path fill-rule="evenodd" clip-rule="evenodd" d="M178.456 57.4162C178.456 55.669 177.04 54.2527 175.293 54.2527L57.398 54.2527L57.3551 54.253C55.6316 54.253 54.2344 55.6502 54.2344 57.3737V180.792C54.2344 182.539 55.6507 183.955 57.3979 183.955H67.0217L67.0219 183.955L67.0221 183.955H165.668L165.668 183.955L165.668 183.955H178.456L178.456 183.955L178.456 183.955L178.456 183.954V171.167L178.456 171.167L178.456 171.167V63.9283L178.456 63.901L178.456 63.8767V57.4162ZM165.668 70.2037C165.668 68.4566 164.252 67.0402 162.505 67.0402L125.841 67.0402L125.924 85.5648L129.367 84.048C129.565 83.9604 129.78 83.9147 129.997 83.9137L150.007 83.824C150.881 83.8201 151.592 84.5251 151.596 85.3987L151.641 95.3961C151.645 96.2312 150.999 96.9253 150.166 96.9813L130.605 98.2975L124.568 101.095C124.384 101.207 124.186 101.299 123.978 101.368L109.773 107.949C102.473 109.443 99.2245 110.189 97.6003 110.561C96.5076 110.812 96.15 110.894 95.7882 110.922C95.6122 110.935 95.4353 110.936 95.1722 110.937L95.2244 153.338C95.2316 154.946 93.9222 156.267 92.3146 156.274L83.5461 156.313C81.9386 156.321 80.6174 155.011 80.6102 153.404L80.432 82.8705C80.4248 81.263 81.7342 79.9418 83.3418 79.9346L92.1103 79.8953C93.7178 79.8881 95.039 81.1975 95.0462 82.805L95.1068 96.3231L101.576 96.2942L111.339 91.9921L111.308 85.1279L111.227 67.0402L70.1854 67.0402C68.4382 67.0402 67.0219 68.4566 67.0219 70.2037V168.004C67.0219 169.751 68.4382 171.167 70.1854 171.167L138.329 171.167C138.328 171.133 138.327 171.098 138.327 171.063L138.245 152.652L138.084 116.824C138.074 114.634 139.382 112.837 140.989 112.83L149.758 112.79C151.365 112.783 152.688 114.569 152.698 116.758L152.941 170.998C152.942 171.054 152.941 171.111 152.939 171.167H162.505C164.252 171.167 165.668 169.751 165.668 168.004V70.2037Z" fill="white"/>
</g>
<g filter="url(#filter1_d_2201_25)">
<path d="M235.571 157.207H229.047C227.851 157.207 226.873 156.227 226.873 155.03V91.8867H218.175C216.979 91.8867 216 90.9069 216 89.7094V83.1773C216 81.9798 216.979 81 218.175 81H235.571C236.767 81 237.745 81.9798 237.745 83.1773V91.8867H246.444C247.64 91.8867 248.618 92.8665 248.618 94.064V100.596C248.618 101.794 247.64 102.773 246.444 102.773H237.745V155.03C237.745 156.227 236.767 157.207 235.571 157.207ZM257.316 113.66H250.793C249.597 113.66 248.618 112.68 248.618 111.483V104.951C248.618 103.753 249.597 102.773 250.793 102.773H257.316C258.512 102.773 259.491 103.753 259.491 104.951V111.483C259.491 112.68 258.512 113.66 257.316 113.66ZM270.364 124.547H261.666C260.47 124.547 259.491 123.567 259.491 122.369V115.837C259.491 114.64 260.47 113.66 261.666 113.66H270.364V83.1773C270.364 81.9798 271.342 81 272.538 81H279.062C280.258 81 281.236 81.9798 281.236 83.1773V155.03C281.236 156.227 280.258 157.207 279.062 157.207H272.538C271.342 157.207 270.364 156.227 270.364 155.03V124.547Z" fill="white"/>
<path d="M306.499 157.207H299.975C298.779 157.207 297.8 156.227 297.8 155.03V91.8867H289.102C287.906 91.8867 286.928 90.9069 286.928 89.7094V83.1773C286.928 81.9798 287.906 81 289.102 81H339.117C340.313 81 341.291 81.9798 341.291 83.1773V89.7094C341.291 90.9069 340.313 91.8867 339.117 91.8867H308.673V124.547H341.291V94.064C341.291 92.8665 342.27 91.8867 343.466 91.8867H349.99C351.186 91.8867 352.164 92.8665 352.164 94.064V155.03C352.164 156.227 351.186 157.207 349.99 157.207H343.466C342.27 157.207 341.291 156.227 341.291 155.03V135.434H308.673V155.03C308.673 156.227 307.695 157.207 306.499 157.207Z" fill="white"/>
<path d="M415.878 81H422.401C423.597 81 424.576 81.9798 424.576 83.1773V144.143C424.576 145.34 423.597 146.32 422.401 146.32H415.878C414.682 146.32 413.703 145.34 413.703 144.143V83.1773C413.703 81.9798 414.682 81 415.878 81ZM370.212 91.8867H361.514C360.318 91.8867 359.339 90.9069 359.339 89.7094V83.1773C359.339 81.9798 360.318 81 361.514 81H378.91C380.106 81 381.085 81.9798 381.085 83.1773V144.143C381.085 145.34 380.106 146.32 378.91 146.32H372.387C371.191 146.32 370.212 145.34 370.212 144.143V91.8867ZM411.529 157.207H383.259C382.063 157.207 381.085 156.227 381.085 155.03V148.498C381.085 147.3 382.063 146.32 383.259 146.32H411.529C412.725 146.32 413.703 147.3 413.703 148.498V155.03C413.703 156.227 412.725 157.207 411.529 157.207Z" fill="white"/>
<path d="M477.095 102.773H483.619C484.815 102.773 485.794 103.753 485.794 104.951V111.483C485.794 112.68 484.815 113.66 483.619 113.66H477.095C475.899 113.66 474.921 112.68 474.921 111.483V104.951C474.921 103.753 475.899 102.773 477.095 102.773ZM442.303 91.8867H433.604C432.408 91.8867 431.43 90.9069 431.43 89.7094V83.1773C431.43 81.9798 432.408 81 433.604 81H451.001C452.197 81 453.175 81.9798 453.175 83.1773V100.596C453.175 101.794 452.197 102.773 451.001 102.773H444.477C443.281 102.773 442.303 101.794 442.303 100.596V91.8867ZM494.492 157.207H487.968C486.772 157.207 485.794 156.227 485.794 155.03V137.611C485.794 136.413 486.772 135.434 487.968 135.434H494.492C495.688 135.434 496.666 136.413 496.666 137.611V155.03C496.666 156.227 495.688 157.207 494.492 157.207ZM451.001 157.207H444.477C443.281 157.207 442.303 156.227 442.303 155.03V137.611C442.303 136.413 443.281 135.434 444.477 135.434H451.001C452.197 135.434 453.175 136.413 453.175 137.611V155.03C453.175 156.227 452.197 157.207 451.001 157.207ZM461.874 135.434H455.35C454.154 135.434 453.175 134.454 453.175 133.256V126.724C453.175 125.527 454.154 124.547 455.35 124.547H461.874C463.07 124.547 464.048 125.527 464.048 126.724V133.256C464.048 134.454 463.07 135.434 461.874 135.434ZM483.619 135.434H477.095C475.899 135.434 474.921 134.454 474.921 133.256V126.724C474.921 125.527 475.899 124.547 477.095 124.547H483.619C484.815 124.547 485.794 125.527 485.794 126.724V133.256C485.794 134.454 484.815 135.434 483.619 135.434ZM487.968 81H494.492C495.688 81 496.666 81.9798 496.666 83.1773V100.596C496.666 101.794 495.688 102.773 494.492 102.773H487.968C486.772 102.773 485.794 101.794 485.794 100.596V83.1773C485.794 81.9798 486.772 81 487.968 81ZM466.223 113.66H472.746C473.942 113.66 474.921 114.64 474.921 115.837V122.369C474.921 123.567 473.942 124.547 472.746 124.547H466.223C465.027 124.547 464.048 123.567 464.048 122.369V115.837C464.048 114.64 465.027 113.66 466.223 113.66ZM455.35 102.773H461.874C463.07 102.773 464.048 103.753 464.048 104.951V111.483C464.048 112.68 463.07 113.66 461.874 113.66H455.35C454.154 113.66 453.175 112.68 453.175 111.483V104.951C453.175 103.753 454.154 102.773 455.35 102.773Z" fill="white"/>
<path d="M535.853 146.32C537.049 146.32 538.028 147.3 538.028 148.498V155.03C538.028 156.227 537.049 157.207 535.853 157.207H507.584C506.388 157.207 505.41 156.227 505.41 155.03V148.498C505.41 147.3 506.388 146.32 507.584 146.32H516.282V102.773H507.584C506.388 102.773 505.41 101.794 505.41 100.596V94.064C505.41 92.8665 506.388 91.8867 507.584 91.8867H516.282V83.1773C516.282 81.9798 517.261 81 518.457 81H524.981C526.177 81 527.155 81.9798 527.155 83.1773V146.32H535.853Z" fill="white"/>
<path d="M561.86 157.207H555.336C554.14 157.207 553.161 156.227 553.161 155.03V91.8867H544.463C543.267 91.8867 542.289 90.9069 542.289 89.7094V83.1773C542.289 81.9798 543.267 81 544.463 81H594.478C595.674 81 596.652 81.9798 596.652 83.1773V89.7094C596.652 90.9069 595.674 91.8867 594.478 91.8867H564.034V124.547H596.652V94.064C596.652 92.8665 597.631 91.8867 598.827 91.8867H605.351C606.547 91.8867 607.525 92.8665 607.525 94.064V155.03C607.525 156.227 606.547 157.207 605.351 157.207H598.827C597.631 157.207 596.652 156.227 596.652 155.03V135.434H564.034V155.03C564.034 156.227 563.056 157.207 561.86 157.207Z" fill="white"/>
</g>
<defs>
<filter id="filter0_d_2201_25" x="0.40435" y="4.72906" width="231.882" height="237.362" filterUnits="userSpaceOnUse" color-interpolation-filters="sRGB">
<feFlood flood-opacity="0" result="BackgroundImageFix"/>
<feColorMatrix in="SourceAlpha" type="matrix" values="0 0 0 0 0 0 0 0 0 0 0 0 0 0 0 0 0 0 127 0" result="hardAlpha"/>
<feOffset dy="4.3064"/>
<feGaussianBlur stdDeviation="26.915"/>
<feComposite in2="hardAlpha" operator="out"/>
<feColorMatrix type="matrix" values="0 0 0 0 1 0 0 0 0 1 0 0 0 0 1 0 0 0 0.1 0"/>
<feBlend mode="normal" in2="BackgroundImageFix" result="effect1_dropShadow_2201_25"/>
<feBlend mode="normal" in="SourceGraphic" in2="effect1_dropShadow_2201_25" result="shape"/>
</filter>
<filter id="filter1_d_2201_25" x="128.75" y="0.729564" width="566.026" height="250.708" filterUnits="userSpaceOnUse" color-interpolation-filters="sRGB">
<feFlood flood-opacity="0" result="BackgroundImageFix"/>
<feColorMatrix in="SourceAlpha" type="matrix" values="0 0 0 0 0 0 0 0 0 0 0 0 0 0 0 0 0 0 127 0" result="hardAlpha"/>
<feOffset dy="6.98004"/>
<feGaussianBlur stdDeviation="43.6252"/>
<feComposite in2="hardAlpha" operator="out"/>
<feColorMatrix type="matrix" values="0 0 0 0 1 0 0 0 0 1 0 0 0 0 1 0 0 0 0.1 0"/>
<feBlend mode="normal" in2="BackgroundImageFix" result="effect1_dropShadow_2201_25"/>
<feBlend mode="normal" in="SourceGraphic" in2="effect1_dropShadow_2201_25" result="shape"/>
</filter>
</defs>
</svg>
