<svg width="133" height="26" viewBox="0 0 133 26" fill="none" xmlns="http://www.w3.org/2000/svg">
<path fill-rule="evenodd" clip-rule="evenodd" d="M2.5342 2.4784e-05L2.53418 0H1.20088C0.53765 0 0 0.537651 0 1.20088V24.5032C0 25.1664 0.537649 25.704 1.20087 25.704L22.0837 25.7041L22.0837 25.7041L22.0838 25.7042H24.6179L24.6179 25.7041V25.7041L24.6179 25.7041L24.618 25.704V23.1699L24.6179 23.1698L24.6179 23.1698V1.34462L24.618 1.33338V1.20093C24.618 0.537701 24.0803 5.05099e-05 23.4171 5.04809e-05L2.53423 4.95681e-05L2.5342 2.4784e-05ZM22.0837 3.73513C22.0837 3.0719 21.5461 2.53425 20.8828 2.53425L14.1922 2.53425L14.2106 6.65625L15.1495 6.24255C15.2248 6.20932 15.3063 6.19197 15.3887 6.19157L18.6669 6.17563C18.9986 6.17402 19.2688 6.44167 19.2703 6.77337L19.2767 8.19902C19.2781 8.51557 19.0335 8.77884 18.7177 8.80071L15.4898 9.02424L11.3218 10.9553C9.87506 11.2514 9.23129 11.3991 8.90941 11.473C8.69285 11.5226 8.62198 11.5389 8.55028 11.5444C8.51542 11.5471 8.48036 11.5473 8.42826 11.5475H8.42822L8.43856 19.2784C8.43998 19.597 8.18049 19.8588 7.86191 19.8603L6.12419 19.868C5.80561 19.8695 5.54378 19.61 5.54235 19.2914L5.50703 5.9853C5.50561 5.66672 5.7651 5.40489 6.08368 5.40346L7.8214 5.39568C8.13998 5.39425 8.40181 5.65374 8.40324 5.97232L8.41524 8.65131L10.3876 8.64247C10.4129 8.45634 10.525 8.28034 10.7415 8.18496L11.3201 7.93L11.312 6.11875L11.2959 2.53425L3.73508 2.53425C3.07185 2.53425 2.5342 3.0719 2.5342 3.73513V21.969C2.5342 22.6322 3.07185 23.1698 3.73508 23.1698L16.3514 23.1698L16.3358 19.6755L16.3052 12.8559C16.3034 12.4392 16.5625 12.097 16.8811 12.0956L18.6188 12.0878C18.9374 12.0864 19.1996 12.4262 19.2014 12.843L19.2477 23.167L19.2477 23.1698H20.8828C21.5461 23.1698 22.0837 22.6322 22.0837 21.969V3.73513Z" fill="white"/>
<path d="M39.9481 22.6462H38.2691C37.9613 22.6462 37.7095 22.3944 37.7095 22.0866V5.8563H35.4708C35.163 5.8563 34.9111 5.60446 34.9111 5.29664V3.61765C34.9111 3.30983 35.163 3.05798 35.4708 3.05798H39.9481C40.2559 3.05798 40.5078 3.30983 40.5078 3.61765V5.8563H42.7464C43.0542 5.8563 43.3061 6.10815 43.3061 6.41597V8.09496C43.3061 8.40278 43.0542 8.65463 42.7464 8.65463H40.5078V22.0866C40.5078 22.3944 40.2559 22.6462 39.9481 22.6462ZM45.5448 11.4529H43.8658C43.5579 11.4529 43.3061 11.2011 43.3061 10.8933V9.21429C43.3061 8.90647 43.5579 8.65463 43.8658 8.65463H45.5448C45.8526 8.65463 46.1044 8.90647 46.1044 9.21429V10.8933C46.1044 11.2011 45.8526 11.4529 45.5448 11.4529ZM48.9027 14.2513H46.6641C46.3563 14.2513 46.1044 13.9994 46.1044 13.6916V12.0126C46.1044 11.7048 46.3563 11.4529 46.6641 11.4529H48.9027V3.61765C48.9027 3.30983 49.1546 3.05798 49.4624 3.05798H51.1414C51.4492 3.05798 51.7011 3.30983 51.7011 3.61765V22.0866C51.7011 22.3944 51.4492 22.6462 51.1414 22.6462H49.4624C49.1546 22.6462 48.9027 22.3944 48.9027 22.0866V14.2513Z" fill="white"/>
<path d="M58.2028 22.6462H56.5238C56.216 22.6462 55.9641 22.3944 55.9641 22.0866V5.8563H53.7255C53.4177 5.8563 53.1658 5.60446 53.1658 5.29664V3.61765C53.1658 3.30983 53.4177 3.05798 53.7255 3.05798H66.5977C66.9056 3.05798 67.1574 3.30983 67.1574 3.61765V5.29664C67.1574 5.60446 66.9056 5.8563 66.5977 5.8563H58.7624V14.2513H67.1574V6.41597C67.1574 6.10815 67.4093 5.8563 67.7171 5.8563H69.3961C69.7039 5.8563 69.9557 6.10815 69.9557 6.41597V22.0866C69.9557 22.3944 69.7039 22.6462 69.3961 22.6462H67.7171C67.4093 22.6462 67.1574 22.3944 67.1574 22.0866V17.0496H58.7624V22.0866C58.7624 22.3944 58.5106 22.6462 58.2028 22.6462Z" fill="white"/>
<path d="M86.3537 3.05798H88.0327C88.3405 3.05798 88.5923 3.30983 88.5923 3.61765V19.2882C88.5923 19.5961 88.3405 19.8479 88.0327 19.8479H86.3537C86.0459 19.8479 85.794 19.5961 85.794 19.2882V3.61765C85.794 3.30983 86.0459 3.05798 86.3537 3.05798ZM74.6007 5.8563H72.3621C72.0542 5.8563 71.8024 5.60446 71.8024 5.29664V3.61765C71.8024 3.30983 72.0542 3.05798 72.3621 3.05798H76.8394C77.1472 3.05798 77.399 3.30983 77.399 3.61765V19.2882C77.399 19.5961 77.1472 19.8479 76.8394 19.8479H75.1604C74.8526 19.8479 74.6007 19.5961 74.6007 19.2882V5.8563ZM85.2343 22.6462H77.9587C77.6509 22.6462 77.399 22.3944 77.399 22.0866V20.4076C77.399 20.0998 77.6509 19.8479 77.9587 19.8479H85.2343C85.5422 19.8479 85.794 20.0998 85.794 20.4076V22.0866C85.794 22.3944 85.5422 22.6462 85.2343 22.6462Z" fill="white"/>
<path d="M102.109 8.65463H103.788C104.096 8.65463 104.348 8.90647 104.348 9.21429V10.8933C104.348 11.2011 104.096 11.4529 103.788 11.4529H102.109C101.801 11.4529 101.55 11.2011 101.55 10.8933V9.21429C101.55 8.90647 101.801 8.65463 102.109 8.65463ZM93.1547 5.8563H90.916C90.6082 5.8563 90.3564 5.60446 90.3564 5.29664V3.61765C90.3564 3.30983 90.6082 3.05798 90.916 3.05798H95.3933C95.7012 3.05798 95.953 3.30983 95.953 3.61765V8.09496C95.953 8.40278 95.7012 8.65463 95.3933 8.65463H93.7143C93.4065 8.65463 93.1547 8.40278 93.1547 8.09496V5.8563ZM106.587 22.6462H104.908C104.6 22.6462 104.348 22.3944 104.348 22.0866V17.6093C104.348 17.3014 104.6 17.0496 104.908 17.0496H106.587C106.894 17.0496 107.146 17.3014 107.146 17.6093V22.0866C107.146 22.3944 106.894 22.6462 106.587 22.6462ZM95.3933 22.6462H93.7143C93.4065 22.6462 93.1547 22.3944 93.1547 22.0866V17.6093C93.1547 17.3014 93.4065 17.0496 93.7143 17.0496H95.3933C95.7012 17.0496 95.953 17.3014 95.953 17.6093V22.0866C95.953 22.3944 95.7012 22.6462 95.3933 22.6462ZM98.1917 17.0496H96.5127C96.2048 17.0496 95.953 16.7977 95.953 16.4899V14.8109C95.953 14.5031 96.2048 14.2513 96.5127 14.2513H98.1917C98.4995 14.2513 98.7513 14.5031 98.7513 14.8109V16.4899C98.7513 16.7977 98.4995 17.0496 98.1917 17.0496ZM103.788 17.0496H102.109C101.801 17.0496 101.55 16.7977 101.55 16.4899V14.8109C101.55 14.5031 101.801 14.2513 102.109 14.2513H103.788C104.096 14.2513 104.348 14.5031 104.348 14.8109V16.4899C104.348 16.7977 104.096 17.0496 103.788 17.0496ZM104.908 3.05798H106.587C106.894 3.05798 107.146 3.30983 107.146 3.61765V8.09496C107.146 8.40278 106.894 8.65463 106.587 8.65463H104.908C104.6 8.65463 104.348 8.40278 104.348 8.09496V3.61765C104.348 3.30983 104.6 3.05798 104.908 3.05798ZM99.311 11.4529H100.99C101.298 11.4529 101.55 11.7048 101.55 12.0126V13.6916C101.55 13.9994 101.298 14.2513 100.99 14.2513H99.311C99.0032 14.2513 98.7513 13.9994 98.7513 13.6916V12.0126C98.7513 11.7048 99.0032 11.4529 99.311 11.4529ZM96.5127 8.65463H98.1917C98.4995 8.65463 98.7513 8.90647 98.7513 9.21429V10.8933C98.7513 11.2011 98.4995 11.4529 98.1917 11.4529H96.5127C96.2048 11.4529 95.953 11.2011 95.953 10.8933V9.21429C95.953 8.90647 96.2048 8.65463 96.5127 8.65463Z" fill="white"/>
<path d="M113.65 22.6462H111.971C111.663 22.6462 111.411 22.3944 111.411 22.0866V5.8563H109.173C108.865 5.8563 108.613 5.60446 108.613 5.29664V3.61765C108.613 3.30983 108.865 3.05798 109.173 3.05798C110.656 3.05798 112.167 3.05798 113.65 3.05798C113.958 3.05798 114.21 3.30983 114.21 3.61765V22.0866C114.21 22.3944 113.958 22.6462 113.65 22.6462Z" fill="white"/>
<path d="M121.247 22.6462H119.568C119.26 22.6462 119.008 22.3944 119.008 22.0866V5.8563H116.77C116.462 5.8563 116.21 5.60446 116.21 5.29664V3.61765C116.21 3.30983 116.462 3.05798 116.77 3.05798H129.642C129.95 3.05798 130.202 3.30983 130.202 3.61765V5.29664C130.202 5.60446 129.95 5.8563 129.642 5.8563H121.807V14.2513H130.202V6.41597C130.202 6.10815 130.453 5.8563 130.761 5.8563H132.44C132.748 5.8563 133 6.10815 133 6.41597V22.0866C133 22.3944 132.748 22.6462 132.44 22.6462H130.761C130.453 22.6462 130.202 22.3944 130.202 22.0866V17.0496H121.807V22.0866C121.807 22.3944 121.555 22.6462 121.247 22.6462Z" fill="white"/>
</svg>
