<svg width="375" height="382" viewBox="0 0 375 382" fill="none" xmlns="http://www.w3.org/2000/svg">
<g filter="url(#filter0_d_2201_11)">
<path fill-rule="evenodd" clip-rule="evenodd" d="M267.093 105.909C267.093 102.409 264.256 99.5715 260.756 99.5715L114.812 99.5715L114.782 99.5716C111.299 99.5716 108.474 102.401 108.474 105.884L108.474 105.909V109.563L108.474 109.587L108.474 248.86V265.188C108.474 265.188 108.474 265.188 108.474 265.188C108.475 265.188 108.475 265.188 108.475 265.188H124.803C124.803 265.188 124.803 265.188 124.803 265.188C124.803 265.188 124.803 265.188 124.803 265.188H250.765C250.765 265.188 250.765 265.188 250.765 265.188C250.765 265.188 250.765 265.188 250.765 265.188H267.093C267.093 265.188 267.093 265.188 267.093 265.188C267.093 265.188 267.093 265.188 267.093 265.188V248.86V109.563L267.093 107.736L267.093 105.909ZM250.765 122.237C250.765 118.737 247.928 115.9 244.428 115.9L200.914 115.9C200.36 115.9 199.912 116.35 199.914 116.904L200.008 137.961C200.012 138.674 200.739 139.155 201.396 138.878L204.213 137.693C204.597 137.531 205.01 137.447 205.427 137.445L229.618 137.337C231.368 137.329 232.793 138.741 232.801 140.491L232.848 151.062C232.856 152.721 231.581 154.105 229.927 154.235L205.398 156.158C205.279 156.167 205.163 156.197 205.055 156.247L198.274 159.389C198.045 159.528 197.799 159.642 197.541 159.729L179.498 168.088C179.428 168.121 179.352 168.145 179.277 168.161C170.036 170.053 165.914 170.999 163.849 171.473C162.453 171.793 161.997 171.897 161.535 171.933C161.101 171.967 160.749 172.305 160.749 172.74L160.815 226.095C160.824 228.148 159.152 229.835 157.099 229.844L145.903 229.894C143.85 229.903 142.163 228.231 142.154 226.178L141.926 136.114C141.917 134.062 143.589 132.375 145.642 132.365L156.838 132.315C158.891 132.306 160.578 133.978 160.587 136.031L160.66 152.292C160.663 152.844 161.112 153.29 161.665 153.288L167.103 153.263C167.31 153.262 167.509 153.193 167.688 153.09C167.816 153.015 167.953 152.947 168.099 152.886L180.774 147.554C181.146 147.397 181.388 147.032 181.386 146.628L181.352 138.996L181.253 116.895C181.25 116.345 180.803 115.9 180.253 115.9L131.14 115.9C127.64 115.9 124.803 118.737 124.803 122.237V242.523C124.803 246.023 127.64 248.86 131.14 248.86H215.721C215.794 248.86 215.853 248.799 215.853 248.726L215.748 225.216L215.543 179.468C215.53 176.672 217.199 174.377 219.252 174.368L230.449 174.317C232.501 174.308 234.191 176.588 234.204 179.384L234.514 248.642C234.514 248.685 234.514 248.728 234.513 248.771C234.513 248.82 234.551 248.86 234.6 248.86H244.428C247.928 248.86 250.765 246.023 250.765 242.522V122.237Z" fill="white"/>
</g>
<defs>
<filter id="filter0_d_2201_11" x="0.637413" y="0.361536" width="374.293" height="381.291" filterUnits="userSpaceOnUse" color-interpolation-filters="sRGB">
<feFlood flood-opacity="0" result="BackgroundImageFix"/>
<feColorMatrix in="SourceAlpha" type="matrix" values="0 0 0 0 0 0 0 0 0 0 0 0 0 0 0 0 0 0 127 0" result="hardAlpha"/>
<feOffset dy="8.62696"/>
<feGaussianBlur stdDeviation="53.9185"/>
<feComposite in2="hardAlpha" operator="out"/>
<feColorMatrix type="matrix" values="0 0 0 0 1 0 0 0 0 1 0 0 0 0 1 0 0 0 0.1 0"/>
<feBlend mode="normal" in2="BackgroundImageFix" result="effect1_dropShadow_2201_11"/>
<feBlend mode="normal" in="SourceGraphic" in2="effect1_dropShadow_2201_11" result="shape"/>
</filter>
</defs>
</svg>
